<svg xmlns="http://www.w3.org/2000/svg" viewBox="0 0 803 788.75" fill-rule="evenodd" clip-rule="evenodd" shape-rendering="geometricPrecision" text-rendering="geometricPrecision" image-rendering="optimizeQuality"><path d="M86 242l77-60V57h70v72L401 0l315 242-28 52-46-35v21l161 124v48l-23-17v156h15v40H11v-40h11V435L0 452v-48l160-123v-22l-46 35-28-52zm62 249v56h-40v-56h40zm-51 56H57v-56h40v56zM57 425h40v54H57v-54zm51 0h40v54h-40v-54zM41 591h119V330L41 421v170zm615-100v56h40v-56h-40zm52 56h40v-56h-40v56zm40-122h-40v54h40v-54zm-52 0h-40v54h40v-54zm66-4l-120-92v262h120V421zM624 591V248L401 77 178 247v344h178V424h90v167h178zM520 275h40v57h-40v-57zM242 397h40v-54h-40v54zm51 0h40v-54h-40v54zm40-65v-57h-40v57h40zm-51-57h-40v57h40v-57zm278 122h-40v-54h40v54zm-52 0h-40v-54h40v54zm-40-65v-57h40v57h-40zm0 158v56h40v-56h-40zm-186 56h-40v-56h40v56zm-40-122h40v55h-40v-55zm51 0h40v55h-40v-55zm40 66v56h-40v-56h40zm187 56h40v-56h-40v56zm40-122h-40v55h40v-55zm-52 0h-40v55h40v-55z"/></svg>
